<?xml version="1.0" encoding="iso-8859-1"?>
<!-- Uploaded to: SVG Repo, www.svgrepo.com, Generator: SVG Repo Mixer Tools -->
<svg fill="#fe00ff" height="800px" width="800px" version="1.1" id="Layer_1" xmlns="http://www.w3.org/2000/svg" xmlns:xlink="http://www.w3.org/1999/xlink"
	 viewBox="0 0 511.999 511.999" xml:space="preserve">
<g>
	<g>
		<path d="M504.662,214.512c-4.499-9.226-11.319-17.263-19.722-23.244c-8.754-6.23-19.024-10.085-29.7-11.147h-0.001
			c-18.122-1.804-35.986,4.525-48.903,16.84l-121.117-86.197c11.145-1.284,19.83-10.773,19.83-22.257
			c0-12.356-10.053-22.41-22.41-22.41h-16.583v-7.13c0-5.632-4.567-10.2-10.2-10.2c-5.632,0-10.2,4.567-10.2,10.2v7.13h-16.584
			c-12.356,0-22.41,10.053-22.41,22.41c0,11.483,8.684,20.971,19.829,22.256l-120.729,85.922
			c-12.921-12.348-30.811-18.692-48.959-16.894h-0.001c-10.676,1.062-20.946,4.916-29.7,11.147
			c-8.404,5.981-15.224,14.018-19.722,23.243c-10.752,22.051-9.684,47.563,2.723,64.996v-0.001
			c10.775,15.142,30.309,24.124,51.383,24.123c2.954,0,5.941-0.176,8.935-0.538c0.001,0,0.001,0,0.002,0
			c10.189-1.228,20.018-5.039,28.419-11.02c8.752-6.228,15.757-14.667,20.259-24.404c0.001-0.003,0.003-0.005,0.004-0.008
			c8.047-17.416,7.479-37.511-1.136-54.293l114.45-81.453l-54.716,130.143c-17.634-3.889-36.406,0.098-51.031,11.295
			c-8.519,6.522-15.223,15.205-19.389,25.111c-3.997,9.508-5.565,19.931-4.535,30.144c2.465,24.426,16.103,44.69,35.593,52.884
			c7.162,3.011,14.594,4.315,21.901,4.315c16.331-0.001,32.041-6.518,42.734-15.062c0.006-0.005,0.01-0.01,0.016-0.015
			c8.01-6.405,14.354-14.813,18.35-24.316c4.163-9.905,5.678-20.77,4.38-31.418c0-0.001,0-0.001,0-0.001
			c-2.304-18.87-13.184-35.523-29.101-45.297l49.035-116.63v260.129h-37.962c-22.148,0-40.165,18.019-40.165,40.166
			c0,5.632,4.567,10.2,10.2,10.2h156.252c5.632,0,10.2-4.567,10.2-10.2c0-22.148-18.019-40.166-40.166-40.166h-37.96v-260.13
			l49.549,117.854c-15.678,9.809-26.378,26.33-28.66,45.027c0,0.001,0,0.001,0,0.001c-1.298,10.649,0.216,21.514,4.381,31.421
			c3.999,9.509,10.35,17.921,18.365,24.328c0.01,0.008,0.02,0.014,0.03,0.021c11.786,9.408,26.408,14.345,40.83,14.345
			c7.947,0,15.835-1.5,23.15-4.575c19.953-8.389,33.83-28.287,36.216-51.929c1.03-10.211-0.538-20.634-4.536-30.144
			c-4.164-9.906-10.869-18.589-19.387-25.109c-14.766-11.303-33.759-15.263-51.538-11.185l-55.163-131.207l114.815,81.713
			c-8.649,16.796-9.231,36.923-1.171,54.364c0.001,0.003,0.003,0.005,0.004,0.008c4.5,9.735,11.505,18.174,20.259,24.404
			c8.405,5.981,18.233,9.793,28.42,11.02c0.007,0.001,0.014,0,0.021,0.001c2.929,0.353,5.846,0.524,8.74,0.524
			c21.034,0,40.646-9.109,51.557-24.443C514.287,261.825,515.356,236.442,504.662,214.512z M26.725,267.348
			c-5.251-7.379-6.853-16.553-6.129-25.42l28.041,39.401C40.261,279.26,32.131,274.945,26.725,267.348z M87.015,275.121
			c-4.033,2.87-8.551,4.995-13.293,6.273L28.65,218.062c2.76-4.06,6.248-7.634,10.282-10.506c4.307-3.066,9.16-5.273,14.266-6.51
			l3.091,4.342l41.552,58.385C94.998,268.192,91.322,272.055,87.015,275.121z M80.037,203.576
			c6.59,2.973,12.402,7.655,16.718,13.722c4.317,6.066,6.837,13.091,7.489,20.291L80.037,203.576z M146.249,362.353
			c-8.313-3.494-14.109-10.083-17.86-17.524l44.092,18.538C164.063,365.686,154.722,365.917,146.249,362.353z M202.538,338.177
			c-1.92,4.564-4.644,8.749-8.004,12.331l-35.828-15.063l-35.828-15.063c0.208-4.907,1.293-9.78,3.212-14.344
			c2.049-4.874,5.015-9.305,8.704-13.045l70.974,29.839C205.678,328.085,204.586,333.304,202.538,338.177z M197.429,297.196
			l-38.482-16.179c7.17-0.941,14.575-0.017,21.437,2.868C187.246,286.771,193.086,291.418,197.429,297.196z M365.794,362.353
			c-7.709,3.242-16.646,3.753-25.192,1.792l43.084-18.114C379.837,352.843,374.02,358.896,365.794,362.353z M386.576,306.992
			c1.919,4.565,3.003,9.439,3.212,14.345l-71.657,30.126c-3.36-3.581-6.082-7.766-8.002-12.329
			c-2.049-4.874-3.14-10.095-3.232-15.347l70.974-29.839C381.562,297.689,384.528,302.118,386.576,306.992z M332.281,284.839
			c6.865-2.887,14.273-3.805,21.439-2.867l-9.042,3.801l-29.441,12.377C319.579,292.371,325.419,287.725,332.281,284.839
			L332.281,284.839z M304.017,433.266c7.169,0,13.46,3.837,16.926,9.567H190.77c3.465-5.729,9.755-9.567,16.926-9.567H304.017z
			 M282.638,90.516h-53.564c-1.109,0-2.01-0.902-2.01-2.01s0.902-2.01,2.01-2.01h53.564c1.109,0,2.01,0.902,2.01,2.01
			S283.747,90.516,282.638,90.516z M407.798,237.92c0.651-7.201,3.17-14.225,7.489-20.292c4.318-6.067,10.129-10.747,16.719-13.722
			l-12.104,17.007L407.798,237.92z M438.32,281.724c-4.741-1.277-9.259-3.402-13.293-6.272c-4.306-3.066-7.983-6.93-10.825-11.348
			l22.321-31.364l22.321-31.364c5.106,1.237,9.96,3.444,14.266,6.51c4.034,2.87,7.522,6.444,10.282,10.507L438.32,281.724z
			 M485.319,267.348c-5.222,7.339-13.261,11.856-21.764,14.103l27.933-39.248C492.204,250.719,490.729,259.744,485.319,267.348z"/>
	</g>
</g>
</svg>